<?xml version="1.0" encoding="UTF-8"?> <!-- Generator: Adobe Illustrator 25.2.1, SVG Export Plug-In . SVG Version: 6.00 Build 0) --> <svg xmlns="http://www.w3.org/2000/svg" xmlns:xlink="http://www.w3.org/1999/xlink" version="1.1" id="Layer_1" x="0px" y="0px" viewBox="0 0 292.3 207.3" style="enable-background:new 0 0 292.3 207.3;" xml:space="preserve"> <style type="text/css"> .st0{fill:#00273F;} .st1{fill:#FFFFFF;} .st2{fill:#014375;} .st3{fill:#D2E8FF;} .st4{fill:#FED95F;} .st5{fill:#08AC6A;} .st6{fill:none;stroke:#FFFFFF;stroke-miterlimit:10;} .st7{opacity:0.3;fill:#54B7EC;} </style> <rect x="123.2" y="122.4" class="st0" width="46.7" height="29.7"></rect> <rect x="241.5" y="156.2" class="st1" width="17.2" height="42.9"></rect> <rect x="45.9" y="8.7" class="st2" width="201.2" height="119.6"></rect> <rect x="55.5" y="19.1" class="st3" width="181.9" height="98.8"></rect> <rect x="14.5" y="152.1" class="st1" width="264" height="14.8"></rect> <rect x="112" y="144.7" class="st2" width="69" height="7.3"></rect> <rect x="77.5" y="27.7" class="st1" width="138" height="90.2"></rect> <g> <g> <path class="st4" d="M77.5,41.4v-12c0-5.5,4.5-10,10-10h118c5.5,0,10,4.5,10,10v12"></path> </g> <g> <g> <rect x="171.2" y="27.7" class="st1" width="7" height="7"></rect> <rect x="183.3" y="27.7" class="st1" width="7" height="7"></rect> <rect x="195.5" y="27.7" class="st1" width="7" height="7"></rect> </g> </g> </g> <rect x="84.8" y="95.7" class="st5" width="123.3" height="13.7"></rect> <rect x="171.7" y="48.9" class="st3" width="36.5" height="2.9"></rect> <rect x="171.7" y="54.8" class="st3" width="36.5" height="2.9"></rect> <rect x="84.8" y="73.4" class="st3" width="123.3" height="2.9"></rect> <rect x="84.8" y="79.3" class="st3" width="123.3" height="2.9"></rect> <rect x="84.8" y="85.2" class="st3" width="61.7" height="2.9"></rect> <rect x="171.7" y="60.7" class="st3" width="18.2" height="2.9"></rect> <rect x="182" y="99.1" class="st1" width="21.5" height="7"></rect> <polygon class="st5" points="63.8,152.1 39.1,152.1 34.1,111.9 68.8,111.9 "></polygon> <polygon class="st1" points="68.8,106 68.8,100.2 34.1,100.2 34.1,106 31.3,106 31.3,111.9 71.7,111.9 71.7,106 "></polygon> <g> <path class="st0" d="M55,128.5c2.9,2.9,3.7,6.8,1.7,8.8c-2,2-5.9,1.2-8.8-1.7c-2.9-2.9-3.7-6.8-1.7-8.8 C48.2,124.8,52.1,125.6,55,128.5z"></path> <line class="st6" x1="48.1" y1="128.6" x2="54.9" y2="135.4"></line> </g> <g> <rect x="84.8" y="46.6" class="st7" width="81.6" height="19.6"></rect> </g> <rect x="31.3" y="156.2" class="st1" width="17.2" height="42.9"></rect> </svg> 